# xmcd
#
# Track frame offsets:
#	150
#	17431
#	33012
#	45029
#	61165
#	80589
#	97710
#
# Disc length: 1586 seconds
#
# Revision: 1
# Processed by: cddbd v1.5.2PL0 Copyright (c) Steve Scherf et al.
# Submitted via: audiograbber 1.83.01
#
DISCID=37063007
DTITLE=Mike McGuire - Southern Attraction
DYEAR=2015
DGENRE=
TTITLE0=Tennessee Tom
TTITLE1=Stay In Your Lane
TTITLE2=Lucy
TTITLE3=Crazy Lone Star Blues
TTITLE4=Every Sinner Has A Future
TTITLE5=I Still Miss Someone
TTITLE6=Thunder Over Clarksville
EXTD=
EXTT0=
EXTT1=
EXTT2=
EXTT3=
EXTT4=
EXTT5=
EXTT6=
PLAYORDER=
